<svg id="Layer_1" data-name="Layer 1" xmlns="http://www.w3.org/2000/svg" viewBox="0 0 220.05 43.55"><defs><style>.cls-1{fill:#ff5252;}</style></defs><path d="M76.39,19.22a6.49,6.49,0,0,1-2,4.56,6.94,6.94,0,0,1-4.83,1.66,6.26,6.26,0,0,1-5.16-2.32,9.81,9.81,0,0,1-1.88-6.37V15.66a11.38,11.38,0,0,1,.86-4.56,7.09,7.09,0,0,1,11-2.41,6.94,6.94,0,0,1,2.09,4.67H72.89A3.8,3.8,0,0,0,72,10.84a3.28,3.28,0,0,0-2.4-.78,2.93,2.93,0,0,0-2.63,1.32,7.57,7.57,0,0,0-.9,4.1v1.36a8.23,8.23,0,0,0,.84,4.24,2.88,2.88,0,0,0,2.64,1.34A3.35,3.35,0,0,0,72,21.64a3.59,3.59,0,0,0,.92-2.42Z"/><path d="M82.93,22.23H90.4v3h-11V7.28h3.51Z"/><path d="M103,21.5H96.82l-1.17,3.69H91.91L98.26,7.28h3.26l6.39,17.91h-3.74Zm-5.22-3H102L99.89,11.8Z"/><path d="M119.07,20.49a1.91,1.91,0,0,0-.7-1.6,9.09,9.09,0,0,0-2.53-1.19,17.31,17.31,0,0,1-2.9-1.22A5,5,0,0,1,110,12a4.47,4.47,0,0,1,.78-2.59,5.16,5.16,0,0,1,2.24-1.78A8,8,0,0,1,116.33,7a7.3,7.3,0,0,1,3.26.7,5.23,5.23,0,0,1,2.22,2,5.37,5.37,0,0,1,.79,2.88h-3.52a2.47,2.47,0,0,0-.74-1.92,3,3,0,0,0-2.07-.68,3.16,3.16,0,0,0-2,.57,1.87,1.87,0,0,0-.71,1.51,1.74,1.74,0,0,0,.84,1.46,9,9,0,0,0,2.46,1.11A10.62,10.62,0,0,1,121.23,17a4.83,4.83,0,0,1,1.37,3.5,4.4,4.4,0,0,1-1.68,3.65,7.1,7.1,0,0,1-4.51,1.32,8.31,8.31,0,0,1-3.59-.76,5.68,5.68,0,0,1-2.46-2.07,5.49,5.49,0,0,1-.85-3.05H113q0,3,3.38,3a3.22,3.22,0,0,0,2-.53A1.78,1.78,0,0,0,119.07,20.49Z"/><path d="M134.54,20.49a1.91,1.91,0,0,0-.7-1.6,8.94,8.94,0,0,0-2.53-1.19,17.68,17.68,0,0,1-2.9-1.22,5,5,0,0,1-2.9-4.44,4.47,4.47,0,0,1,.78-2.59,5.11,5.11,0,0,1,2.24-1.78A8,8,0,0,1,131.8,7a7.27,7.27,0,0,1,3.26.7,5.2,5.2,0,0,1,3,4.84h-3.52a2.5,2.5,0,0,0-.73-1.92,3,3,0,0,0-2.08-.68,3.13,3.13,0,0,0-2,.57,1.85,1.85,0,0,0-.72,1.51,1.74,1.74,0,0,0,.84,1.46,8.89,8.89,0,0,0,2.47,1.11A10.5,10.5,0,0,1,136.7,17a4.83,4.83,0,0,1,1.37,3.5,4.4,4.4,0,0,1-1.68,3.65,7.08,7.08,0,0,1-4.51,1.32,8.27,8.27,0,0,1-3.58-.76,5.7,5.7,0,0,1-2.47-2.07,5.49,5.49,0,0,1-.85-3.05h3.53q0,3,3.37,3a3.22,3.22,0,0,0,2-.53A1.78,1.78,0,0,0,134.54,20.49Z"/><path d="M147.05,15.35l3.55-8.07h3.85L148.84,18.7v6.49h-3.57V18.7l-5.6-11.42h3.85Z"/><path d="M165.39,20.49a1.91,1.91,0,0,0-.71-1.6,8.94,8.94,0,0,0-2.53-1.19,17.16,17.16,0,0,1-2.89-1.22A5,5,0,0,1,156.35,12a4.47,4.47,0,0,1,.78-2.59,5.16,5.16,0,0,1,2.24-1.78A8,8,0,0,1,162.64,7a7.27,7.27,0,0,1,3.26.7,5.2,5.2,0,0,1,3,4.84H165.4a2.51,2.51,0,0,0-.74-1.92,3,3,0,0,0-2.07-.68,3.16,3.16,0,0,0-2,.57,1.84,1.84,0,0,0-.71,1.51,1.75,1.75,0,0,0,.83,1.46,9,9,0,0,0,2.47,1.11A10.5,10.5,0,0,1,167.54,17a4.79,4.79,0,0,1,1.37,3.5,4.42,4.42,0,0,1-1.67,3.65,7.1,7.1,0,0,1-4.51,1.32,8.28,8.28,0,0,1-3.59-.76,5.7,5.7,0,0,1-2.47-2.07,5.57,5.57,0,0,1-.85-3.05h3.53q0,3,3.38,3a3.2,3.2,0,0,0,2-.53A1.79,1.79,0,0,0,165.39,20.49Z"/><path d="M185.9,25.19h-3.52V17.51h-6.85v7.68H172V7.28h3.52v7.26h6.85V7.28h3.52Z"/><path d="M203.7,16.64a11.2,11.2,0,0,1-.89,4.64,6.87,6.87,0,0,1-2.55,3.07,6.72,6.72,0,0,1-3.8,1.09,6.87,6.87,0,0,1-3.78-1.07,7,7,0,0,1-2.58-3.06,11,11,0,0,1-.93-4.57v-.89a11.28,11.28,0,0,1,.91-4.65,7,7,0,0,1,2.57-3.09,7.19,7.19,0,0,1,7.58,0,7,7,0,0,1,2.57,3.09,11.26,11.26,0,0,1,.9,4.64Zm-3.56-.81a7.82,7.82,0,0,0-1-4.28,3.29,3.29,0,0,0-5.47,0,7.66,7.66,0,0,0-1,4.24v.87a8,8,0,0,0,1,4.26,3.07,3.07,0,0,0,2.76,1.51A3,3,0,0,0,199.18,21a7.93,7.93,0,0,0,1-4.25Z"/><path d="M210.5,18.88v6.31H207V7.28h6.66A7.44,7.44,0,0,1,217,8a5.35,5.35,0,0,1,2.24,2.1,6.13,6.13,0,0,1,.79,3.1,5.28,5.28,0,0,1-1.72,4.15,7,7,0,0,1-4.75,1.52Zm0-3h3.14a3,3,0,0,0,2.12-.69,2.56,2.56,0,0,0,.74-2,3.05,3.05,0,0,0-.74-2.13,2.68,2.68,0,0,0-2-.83H210.5Z"/><path d="M62.41,41.46V34.84h2.83a2.68,2.68,0,0,1,1.67.46,1.53,1.53,0,0,1,.59,1.26,1.69,1.69,0,0,1-.23.9,1.48,1.48,0,0,1-.62.57,1.82,1.82,0,0,1-.83.2l.16-.29a2.18,2.18,0,0,1,1,.2,1.55,1.55,0,0,1,.66.58,1.79,1.79,0,0,1,.24,1A1.55,1.55,0,0,1,67.22,41a2.91,2.91,0,0,1-1.8.47Zm.9-.77h2.07a2.06,2.06,0,0,0,1.15-.26,1.09,1.09,0,0,0,0-1.67,2.06,2.06,0,0,0-1.15-.27H63.23v-.76h1.93a1.81,1.81,0,0,0,1.06-.27.9.9,0,0,0,.38-.79.93.93,0,0,0-.38-.8,1.89,1.89,0,0,0-1.06-.26H63.31Z"/><path d="M75.26,41.46V34.84h.9v6.62Z"/><path d="M86.92,41.53a3.44,3.44,0,0,1-1.34-.25,3.06,3.06,0,0,1-1.06-.7,3.24,3.24,0,0,1-.7-1.08,3.63,3.63,0,0,1,0-2.7A3.18,3.18,0,0,1,85.59,35a3.49,3.49,0,0,1,1.35-.25,3.59,3.59,0,0,1,1.37.25,2.76,2.76,0,0,1,1,.77l-.56.59a2.58,2.58,0,0,0-.84-.59,2.64,2.64,0,0,0-1-.18,2.54,2.54,0,0,0-1,.19,2.43,2.43,0,0,0-.8.53,2.35,2.35,0,0,0-.52.81,2.78,2.78,0,0,0,0,2A2.39,2.39,0,0,0,86,40.51a2.7,2.7,0,0,0,1,.18,2.85,2.85,0,0,0,1-.16,2.42,2.42,0,0,0,.86-.55l.52.71a3.16,3.16,0,0,1-1.1.63A4,4,0,0,1,86.92,41.53Zm1.52-1V38.11h.87v2.58Z"/><path d="M105.51,41.46V34.84h.73l2.83,5h-.4l2.79-5h.74v6.62h-.86V36.27h.2l-2.48,4.39h-.41l-2.51-4.39h.23v5.19Z"/><path d="M121,40.64h3.67v.82h-4.57V34.84h4.45v.83H121ZM121,37.7h3.24v.8H121Z"/><path d="M135,41.53a3.47,3.47,0,0,1-1.34-.25,3.16,3.16,0,0,1-1.06-.7,3.41,3.41,0,0,1-.7-1.08,3.77,3.77,0,0,1,0-2.7,3.13,3.13,0,0,1,.71-1.07,3.09,3.09,0,0,1,1.06-.71,3.49,3.49,0,0,1,1.35-.25,3.56,3.56,0,0,1,1.37.25,2.68,2.68,0,0,1,1.05.77l-.55.59a2.51,2.51,0,0,0-.85-.59,2.63,2.63,0,0,0-1-.18,2.51,2.51,0,0,0-1,.19,2.47,2.47,0,0,0-.81.53,2.51,2.51,0,0,0-.52.81,2.92,2.92,0,0,0,0,2,2.62,2.62,0,0,0,.52.81,2.46,2.46,0,0,0,.8.54,2.73,2.73,0,0,0,1,.18,2.86,2.86,0,0,0,1-.16,2.51,2.51,0,0,0,.86-.55l.51.71a3.12,3.12,0,0,1-1.09.63A4.07,4.07,0,0,1,135,41.53Zm1.53-1V38.11h.86v2.58Z"/><path d="M144.2,41.46l2.86-6.62H148l2.86,6.62h-.94l-2.55-6.09h.36l-2.55,6.09Zm1.22-1.65.24-.76h3.55l.26.76Z"/><path d="M168.06,41.53a3.9,3.9,0,0,1-1.37-.23,2.67,2.67,0,0,1-1-.6L166,40a2.83,2.83,0,0,0,.92.54,3.07,3.07,0,0,0,1.16.22,2.43,2.43,0,0,0,.89-.13,1.11,1.11,0,0,0,.51-.36.9.9,0,0,0,.16-.53.74.74,0,0,0-.21-.55,1.42,1.42,0,0,0-.55-.33,4.62,4.62,0,0,0-.74-.22c-.27-.07-.54-.14-.82-.23a3.31,3.31,0,0,1-.74-.32,1.5,1.5,0,0,1-.55-.54,1.59,1.59,0,0,1-.21-.86,1.82,1.82,0,0,1,.26-.94,1.79,1.79,0,0,1,.79-.69,3.19,3.19,0,0,1,1.37-.26,4.09,4.09,0,0,1,1.09.15,3.07,3.07,0,0,1,.93.43l-.3.76a2.67,2.67,0,0,0-.85-.41,3,3,0,0,0-.87-.13,2.42,2.42,0,0,0-.88.14,1.17,1.17,0,0,0-.5.38,1,1,0,0,0-.15.53.76.76,0,0,0,.21.56,1.42,1.42,0,0,0,.55.33,5.94,5.94,0,0,0,.74.22L169,38a3.68,3.68,0,0,1,.75.32,1.64,1.64,0,0,1,.55.53,1.67,1.67,0,0,1,.2.85,1.73,1.73,0,0,1-.26.94,1.81,1.81,0,0,1-.8.68A3.12,3.12,0,0,1,168.06,41.53Z"/><path d="M179,41.46V35.67h-2.16v-.83h5.21v.83H179.9v5.79Z"/><path d="M191.82,41.53a3.42,3.42,0,0,1-1.33-.25,3.28,3.28,0,0,1-1.07-.71,3.41,3.41,0,0,1-.95-2.42,3.47,3.47,0,0,1,.25-1.34,3.26,3.26,0,0,1,.7-1.07,3.11,3.11,0,0,1,1.06-.72,3.47,3.47,0,0,1,1.34-.25,3.39,3.39,0,0,1,1.33.25,3.09,3.09,0,0,1,1.06.71,3.13,3.13,0,0,1,.71,1.07,3.92,3.92,0,0,1,0,2.7,3.27,3.27,0,0,1-.71,1.08,3.06,3.06,0,0,1-1.06.7A3.39,3.39,0,0,1,191.82,41.53Zm0-.84a2.58,2.58,0,0,0,1-.18,2.23,2.23,0,0,0,.77-.54,2.45,2.45,0,0,0,.52-.81,2.75,2.75,0,0,0,.18-1,2.79,2.79,0,0,0-.18-1,2.45,2.45,0,0,0-.52-.81,2.21,2.21,0,0,0-.77-.53,2.4,2.4,0,0,0-1-.19,2.41,2.41,0,0,0-1.75.72,2.45,2.45,0,0,0-.52.81,2.79,2.79,0,0,0-.18,1,2.75,2.75,0,0,0,.18,1,2.45,2.45,0,0,0,.52.81,2.37,2.37,0,0,0,.78.54A2.54,2.54,0,0,0,191.82,40.69Z"/><path d="M202.57,41.46V34.84H205a3.34,3.34,0,0,1,1.41.28,2,2,0,0,1,.9.79,2.35,2.35,0,0,1,.31,1.24,2.29,2.29,0,0,1-.31,1.23,2,2,0,0,1-.9.79,3.34,3.34,0,0,1-1.41.28h-2l.41-.44v2.45Zm.9-2.35-.41-.47H205a1.93,1.93,0,0,0,1.31-.39,1.59,1.59,0,0,0,0-2.2,2,2,0,0,0-1.31-.38h-1.94l.41-.48Zm3.31,2.35-1.6-2.4h1l1.62,2.4Z"/><path d="M216,40.64h3.67v.82h-4.57V34.84h4.45v.83H216ZM216,37.7h3.24v.8H216Z"/><path class="cls-1" d="M24.51,7.83c2,0,4,0,6,0a1.38,1.38,0,0,0,1.58-1.16C33.51,1.93,38.77-.62,42.94.13a6.51,6.51,0,0,1,5.77,6.43c0,1,.32,1.37,1.3,1.28C52.4,7.62,53.34,9,53.4,11.25c.07,2.54,0,5.08.18,7.62.2,3.42.19,6.85.28,10.27.06,2.29.18,4.59.2,6.88a3.34,3.34,0,0,1-4.66,2.92c-.34-.15-.33-.41-.31-.7.19-3.56-2.86-6-6.86-4.59A6.6,6.6,0,0,0,38,38.18c-.17.57-.38.84-1,.83-1.38,0-2.76,0-4.13,0-.5,0-.93-.05-.88-.74.28-4.38-4.17-6.24-7.9-4.1a6.52,6.52,0,0,0-3.27,4.24c-.2.79-.57,1.14-1.39,1.09s-1.7,0-2.54,0a1.91,1.91,0,0,1-2-1.73,1.89,1.89,0,0,1,1.81-1.87c.56-.07,1.13,0,1.7-.05,1.26-.08,1.92-.65,1.92-1.66s-.64-1.63-1.92-1.65c-3,0-6,0-9,0a11.18,11.18,0,0,1-1.16,0,1.81,1.81,0,1,1,0-3.62c.35,0,.71,0,1.06,0,2.23,0,4.45,0,6.68,0,1.18,0,2-.67,2.07-1.56s-.73-1.6-1.92-1.74c-.42-.05-.85,0-1.26-.11a1.74,1.74,0,0,1-1.48-1.7A1.66,1.66,0,0,1,14.82,22a5.77,5.77,0,0,1,1.25-.13c2.37,0,4.74,0,7.11,0a5,5,0,0,0,1.16-.07,1.68,1.68,0,0,0,1.42-1.52,1.52,1.52,0,0,0-1.28-1.6,4.73,4.73,0,0,0-1.36-.14H12.52c-.31,0-.63,0-.95,0A1.79,1.79,0,0,1,9.71,16.7a1.9,1.9,0,0,1,1.73-1.83,7.52,7.52,0,0,1,1.06,0c2.26,0,4.52,0,6.78,0a4.11,4.11,0,0,0,1.26-.15,1.47,1.47,0,0,0,1.07-1.52,1.43,1.43,0,0,0-1-1.44,6.76,6.76,0,0,0-2.41-.23c-1.32,0-2.21-.76-2.21-1.79s.87-1.82,2.19-1.84c2.12,0,4.24,0,6.36,0Zm15.86,0h0c1.66,0,3.32,0,5,0,1,0,1.32-.43,1.22-1.35a4.37,4.37,0,0,0-2.44-3.72c-3.41-1.74-8.48.35-9.76,4-.26.74-.1,1,.71,1ZM38.83,23.07a9.17,9.17,0,0,0,7.59-5.41A6.44,6.44,0,0,1,47.48,16a1.54,1.54,0,0,0,.1-2.13c-.6-.75-1.41-.54-2.1-.09a1.7,1.7,0,0,0-.83,2.09,1.88,1.88,0,0,1-.3,1.78,8.23,8.23,0,0,1-1.75,2c-2.31,1.95-6.26,2.2-8.5.56a3.32,3.32,0,0,1-1-4.48,1.41,1.41,0,0,0-.21-1.92,1.51,1.51,0,0,0-2,.05,1.75,1.75,0,0,0-.53,2.57,2.81,2.81,0,0,1,.33,1C31,21,34.23,23.16,38.83,23.07Zm-15,5.77a14.91,14.91,0,0,0,1.9-.12,1.57,1.57,0,0,0,1.44-1.57,1.49,1.49,0,0,0-1.34-1.54,10,10,0,0,0-4,0,1.5,1.5,0,0,0-1.29,1.58A1.53,1.53,0,0,0,22,28.72,13,13,0,0,0,23.85,28.84Z"/><path class="cls-1" d="M25.43,43.55a3.82,3.82,0,0,1-3.89-4.71,5.92,5.92,0,0,1,5.06-4.71,4,4,0,0,1,4.27,5.31A5.91,5.91,0,0,1,25.43,43.55Zm2.51-4.95a1.32,1.32,0,0,0-1.33-1.45,2,2,0,0,0-2,2A1.24,1.24,0,0,0,26,40.5,2,2,0,0,0,27.94,38.6Z"/><path class="cls-1" d="M42.54,43.55a3.84,3.84,0,0,1-3.85-4.86,5.73,5.73,0,0,1,4.07-4.35,4,4,0,0,1,5.11,5.38A5.72,5.72,0,0,1,42.54,43.55Zm2.56-4.94a1.33,1.33,0,0,0-1.42-1.46,2.17,2.17,0,0,0-2,1.9A1.41,1.41,0,0,0,43,40.58,2.15,2.15,0,0,0,45.1,38.61Z"/><path class="cls-1" d="M5.84,25.47c-1.23,0-2.47,0-3.7,0A2,2,0,0,1,0,23.7a2,2,0,0,1,2.06-1.86c2.54-.05,5.07,0,7.61,0a1.93,1.93,0,0,1,2,1.79c0,1.08-.71,1.78-2,1.83S7.11,25.47,5.84,25.47Z"/><path class="cls-1" d="M11.66,11.5a12.32,12.32,0,0,1-1.37-.07A1.77,1.77,0,0,1,8.65,9.66a1.85,1.85,0,0,1,1.66-1.77,12.27,12.27,0,0,1,2.64,0,1.77,1.77,0,0,1,1.68,1.84c0,1-.74,1.63-1.92,1.71-.35,0-.7,0-1.05,0Z"/></svg>